HIERARCHY
ROOT Hips
{
	OFFSET 0.00000 0.00000 0.00000
	CHANNELS 6 Xposition Yposition Zposition Zrotation Yrotation Xrotation 
	JOINT LHipJoint
	{
		OFFSET 0 0 0
		CHANNELS 3 Zrotation Yrotation Xrotation
		JOINT LeftHip
		{
			OFFSET 1.57338 -1.94743 0.52196
			CHANNELS 3 Zrotation Yrotation Xrotation
			JOINT LeftKnee
			{
				OFFSET 2.60333 -7.15259 0.00000
				CHANNELS 3 Zrotation Yrotation Xrotation
				JOINT LeftAnkle
				{
					OFFSET 2.77855 -7.63400 0.00000
					CHANNELS 3 Zrotation Yrotation Xrotation
					JOINT LeftToe
					{
						OFFSET 0.19847 -0.54529 2.28466
						CHANNELS 3 Zrotation Yrotation Xrotation
						End Site
						{
							OFFSET 0.00000 -0.00000 1.17993
						}
					}
				}
			}
		}
	}
	JOINT RHipJoint
	{
		OFFSET 0 0 0
		CHANNELS 3 Zrotation Yrotation Xrotation
		JOINT RightHip
		{
			OFFSET -1.61527 -1.94743 0.52196
			CHANNELS 3 Zrotation Yrotation Xrotation
			JOINT RightKnee
			{
				OFFSET -2.53829 -6.97390 0.00000
				CHANNELS 3 Zrotation Yrotation Xrotation
				JOINT RightAnkle
				{
					OFFSET -2.80762 -7.71387 0.00000
					CHANNELS 3 Zrotation Yrotation Xrotation
					JOINT RightToe
					{
						OFFSET -0.30536 -0.83898 2.28801
						CHANNELS 3 Zrotation Yrotation Xrotation
						End Site
						{
							OFFSET -0.00000 -0.00000 1.21323
						}
					}
				}
			}
		}
	}
	JOINT lowerback
	{
		OFFSET 0 0 0
		CHANNELS 3 Zrotation Yrotation Xrotation
		JOINT Chest
		{
			OFFSET -0.04381 1.99497 -0.19778
			CHANNELS 3 Zrotation Yrotation Xrotation
			JOINT Chest2
			{
				OFFSET -0.01959 2.01295 -0.04372
				CHANNELS 3 Zrotation Yrotation Xrotation
				JOINT lowerneck
				{
					OFFSET 0 0 0
					CHANNELS 3 Zrotation Yrotation Xrotation
					JOINT Neck
					{
						OFFSET -0.05459 1.76913 0.09708
						CHANNELS 3 Zrotation Yrotation Xrotation
						JOINT Head
						{
							OFFSET 0.09461 1.77368 -0.11172
							CHANNELS 3 Zrotation Yrotation Xrotation
							End Site
							{
								OFFSET 0.03812 1.78157 -0.04834
							}
						}
					}
				}
				JOINT LeftCollar
				{
					OFFSET 0 0 0
					CHANNELS 3 Zrotation Yrotation Xrotation
					JOINT LeftShoulder
					{
						OFFSET 3.50922 1.24034 -0.28866
CHANNELS 3 Zrotation Xrotation Yrotation
						JOINT LeftElbow
						{
OFFSET 0 -5.401880 0.000000
CHANNELS 3 Zrotation Xrotation Yrotation
							JOINT LeftWrist
							{
OFFSET 0 -3.685590 0.000000
CHANNELS 3 Zrotation Xrotation Yrotation
								JOINT lhand
								{
									OFFSET 0 0 0
CHANNELS 3 Zrotation Xrotation Yrotation
									JOINT LFingers
									{
OFFSET 0 -0.617530 0.000000
CHANNELS 3 Zrotation Xrotation Yrotation
										End Site
										{
OFFSET 0 -0.497870 0.000000
										}
									}
								}
								JOINT LThumb
								{
OFFSET 0 0.000000 0.000000
CHANNELS 3 Zrotation Xrotation Yrotation
									End Site
									{
OFFSET 0 -0.505470 0.505470
									}
								}
							}
						}
					}
				}
				JOINT RightCollar
				{
					OFFSET 0 0 0
					CHANNELS 3 Zrotation Yrotation Xrotation
					JOINT RightShoulder
					{
						OFFSET -2.95373 1.39649 -0.27346
CHANNELS 3 Zrotation Xrotation Yrotation
						JOINT RightElbow
						{
OFFSET 0 -6.106700 -0.000000
CHANNELS 3 Zrotation Xrotation Yrotation
							JOINT RightWrist
							{
OFFSET 0 -3.630520 0.000000
CHANNELS 3 Zrotation Xrotation Yrotation
								JOINT rhand
								{
									OFFSET 0 0 0
CHANNELS 3 Zrotation Xrotation Yrotation
									JOINT RFingers
									{
OFFSET 0 -0.583850 0.000000
CHANNELS 3 Zrotation Xrotation Yrotation
										End Site
										{
OFFSET 0 -0.470710 0.000000
										}
									}
								}
								JOINT RThumb
								{
OFFSET 0 0.000000 0.000000
CHANNELS 3 Zrotation Xrotation Yrotation
									End Site
									{
OFFSET 0 -0.477900 0.477900
									}
								}
							}
						}
					}
				}
			}
		}
	}
}
MOTION
Frames: 11
Frame Time: 0.008333333333333333
-15.483500 18.501600 -3.550200 0.294200 10.434700 -0.851800 0.000000 0.000000 0.000000 -5.736300 -9.728900 -8.074800 1.194700 6.935600 19.524600 -0.173700 12.818600 -15.838000 0.244200 -3.180200 -8.780800 0.000000 0.000000 0.000000 24.946700 14.349000 -5.279400 -2.493600 -9.826300 28.416000 -0.870300 -10.516400 -24.376100 -0.005900 -0.494300 1.358300 2.419700 0.087200 6.481500 0.762400 0.268900 3.218700 -0.591900 0.157900 -0.309900 -6.628200 1.771900 -10.468500 6.641000 2.354800 20.310700 3.544800 1.271500 7.801800 -0.000000 0.000000 0.000000 8.190100 -0.729500 -58.116400 22.934200 -34.016700 7.101400 -0.777400 -3.766500 -21.979100 0.000000 0.000000 0.000000 -7.125000 0.000000 0.000000 -28.881800 49.593700 3.536100 -0.000000 0.000000 0.000000 -12.693300 5.064400 23.199500 -13.856600 -22.529300 -2.772900 -25.587300 12.073400 -2.313900 0.000000 0.000000 0.000000 7.125000 0.000000 -0.000000 0.769400 27.414400 0.328800
-15.464591 18.486459 -3.591776 0.572902 14.872630 -0.817132 0.000000 0.000000 0.000000 -5.843370 -7.954898 -9.777361 1.226816 7.024730 19.788810 0.223621 7.172954 -14.289502 0.407310 -4.095295 -11.345203 0.000000 0.000000 0.000000 24.554737 13.337379 -5.656211 -2.566186 -9.957287 28.838522 -0.881233 -12.694682 -26.469706 -0.019537 -0.902131 2.479584 2.761610 0.686606 6.830557 0.636485 1.100492 3.194284 -0.972839 0.577045 -0.495124 -6.388926 2.654452 -10.823699 7.383440 3.389174 21.674197 3.900566 1.858481 8.227238 0.000000 0.000000 0.000000 8.541936 -0.566287 -57.813144 23.759962 -34.909400 7.568756 -1.576618 -4.566852 -22.523368 0.000000 0.000000 0.000000 -7.125000 0.000000 0.000000 -29.907861 49.947304 3.962468 0.000000 0.000000 0.000000 -12.824904 5.500685 23.263770 -13.685765 -22.283691 -2.707876 -26.304581 11.839216 -2.240905 0.000000 0.000000 0.000000 7.125000 0.000000 0.000000 0.217181 27.480290 0.092485
-15.414720 18.469111 -3.613764 0.463446 19.309145 -1.011738 0.000000 0.000000 0.000000 -6.314898 -3.390646 -12.803042 1.681863 8.168819 23.228310 0.441029 6.961830 -16.993603 0.182085 -2.734893 -7.542293 0.000000 0.000000 0.000000 24.662903 12.422320 -5.473362 -2.586546 -9.993581 28.956038 -0.906314 -14.893681 -28.809335 -0.036714 -1.237125 3.401592 2.860506 0.983732 6.995195 0.613139 1.511903 3.137350 -1.084930 0.782904 -0.626316 -5.720788 3.704962 -10.474332 7.239169 4.745316 22.425751 3.878795 2.542264 8.332296 0.000000 0.000000 0.000000 8.535072 -0.512584 -56.981910 24.152949 -35.325583 7.794840 2.172375 -2.649119 -20.694841 0.000000 0.000000 0.000000 -7.125000 0.000000 0.000000 -25.547639 48.887687 2.605587 0.000000 0.000000 0.000000 -13.018513 4.380309 20.681786 -13.135128 -21.484813 -2.502572 -26.135950 15.784905 -2.821316 0.000000 0.000000 0.000000 7.125000 0.000000 0.000000 0.354626 26.837467 0.156047
-15.299902 18.472645 -3.619368 0.474934 22.697398 -1.240324 0.000000 0.000000 0.000000 -7.146293 1.170684 -14.957090 2.347199 9.554387 27.545538 0.362883 10.306507 -19.380625 0.000410 -0.104582 -0.287298 0.000000 0.000000 0.000000 24.305881 11.081780 -5.256389 -2.567397 -9.959422 28.845580 -0.933842 -15.965822 -30.082958 -0.041494 -1.314502 3.614488 2.775370 1.497936 6.791879 0.174509 2.181101 3.037887 -1.530766 1.119649 -0.575454 -5.225631 4.175278 -9.938399 9.044170 4.889532 23.385004 4.443682 2.842641 8.495987 0.000000 0.000000 0.000000 9.108646 -0.979445 -57.157102 24.491304 -35.679491 7.991362 -0.933606 -3.370240 -23.847695 0.000000 0.000000 0.000000 -7.125000 0.000000 0.000000 -30.124142 51.197759 4.984253 0.000000 0.000000 0.000000 -12.678069 4.081663 20.043606 -13.656774 -22.241937 -2.696833 -26.399136 16.067817 -1.932562 0.000000 0.000000 0.000000 7.125000 0.000000 0.000000 0.140588 27.822467 0.058855
-15.140725 18.447105 -3.614269 -0.300799 26.261383 -2.056273 0.000000 0.000000 0.000000 -6.450560 3.975161 -15.114486 2.852494 10.452324 30.454269 0.316557 10.301604 -18.857708 0.013456 0.748624 2.057388 0.000000 0.000000 0.000000 24.782897 9.863895 -4.642677 -2.580185 -9.982226 28.919218 -0.967902 -17.480459 -31.866242 -0.069328 -1.696129 4.666774 2.523444 1.686982 6.376176 0.283137 2.408042 3.141938 -1.276538 1.236937 -0.243083 -5.212911 4.107978 -10.086235 9.769182 4.637385 24.183945 4.715437 2.815014 8.792578 0.000000 0.000000 0.000000 9.173644 -1.349086 -57.672759 24.569223 -35.760483 8.036847 -2.296934 -3.346794 -25.133741 0.000000 0.000000 0.000000 -7.125000 0.000000 0.000000 -32.185854 52.075563 6.130848 0.000000 0.000000 0.000000 -13.259743 3.463116 21.777403 -15.081460 -24.259298 -3.259434 -23.312910 14.784784 -2.781805 0.000000 0.000000 0.000000 7.125000 0.000000 0.000000 2.513947 26.948890 1.102158
-14.923830 18.425396 -3.605432 -0.743709 29.685652 -2.552515 0.000000 0.000000 0.000000 -5.644570 4.174543 -13.448435 3.041954 10.762620 31.483589 0.327141 9.682790 -18.306230 0.038001 1.256553 3.455134 0.000000 0.000000 0.000000 24.783529 8.991754 -3.860566 -2.556580 -9.940054 28.782709 -1.036238 -18.926857 -33.792915 -0.136852 -2.384081 6.568456 1.826851 1.676081 5.929323 0.072522 2.345854 2.904544 -1.089145 1.198132 -0.262361 -5.292682 3.982161 -10.017423 10.021862 4.431716 24.532907 4.815859 2.747911 8.906957 0.000000 0.000000 0.000000 9.534264 -0.826137 -57.475628 24.263188 -35.441312 7.858614 -0.843219 -4.635658 -23.022627 0.000000 0.000000 0.000000 -7.125000 0.000000 0.000000 -29.543318 50.495510 4.330594 0.000000 0.000000 0.000000 -13.235280 3.317248 23.497677 -16.953251 -26.795860 -4.066331 -22.557652 13.464170 -3.631858 0.000000 0.000000 0.000000 7.125000 0.000000 0.000000 3.081489 26.046197 1.417454
-14.607537 18.424855 -3.652072 -1.807665 32.505128 -3.593466 0.000000 0.000000 0.000000 -4.350092 4.399810 -10.986103 2.997827 10.691574 31.246619 0.381531 11.456398 -20.828810 0.220136 3.015392 8.321983 0.000000 0.000000 0.000000 24.991827 7.929836 -2.583555 -2.433480 -9.715850 28.061433 -1.016256 -20.296121 -35.134043 -0.163424 -2.604037 7.178178 2.105450 1.754345 5.871254 -0.241433 2.462420 2.699177 -1.576001 1.257697 -0.411497 -4.981326 3.774920 -10.343261 9.796946 4.154760 24.856037 4.691514 2.635922 9.122873 0.000000 0.000000 0.000000 10.016570 -0.465854 -57.318363 23.922230 -35.081881 7.661853 -2.443202 -5.769117 -24.294327 0.000000 0.000000 0.000000 -7.125000 0.000000 0.000000 -31.768956 51.335622 5.422206 0.000000 0.000000 0.000000 -12.592687 3.223536 24.452321 -18.654901 -28.987382 -4.862532 -23.227661 12.381635 -2.904218 0.000000 0.000000 0.000000 7.125000 0.000000 0.000000 2.577516 26.818059 1.138710
-14.214754 18.430336 -3.773959 -3.279970 35.074184 -4.176304 0.000000 0.000000 0.000000 -2.946595 5.041356 -9.970598 2.911920 10.551058 30.780307 0.593782 12.489313 -23.925051 0.738237 5.488629 15.307714 0.000000 0.000000 0.000000 25.175896 7.643893 -2.061171 -2.338964 -9.538970 27.496304 -0.669406 -22.596819 -35.812546 -0.067139 -1.671762 4.599456 2.230935 1.809333 5.353234 -0.124882 2.534009 2.189867 -1.522977 1.283830 -0.643930 -4.862005 4.029235 -9.707292 8.960439 4.698981 24.628466 4.395607 2.810827 8.909460 0.000000 0.000000 0.000000 9.646786 0.198352 -56.782244 23.563280 -34.698956 7.456466 -3.264240 -5.523275 -25.061381 0.000000 0.000000 0.000000 -7.125000 0.000000 0.000000 -33.011452 51.850913 6.125085 0.000000 0.000000 0.000000 -12.423609 3.286686 24.921992 -19.685577 -30.261579 -5.371990 -22.432865 11.490895 -2.364261 0.000000 0.000000 0.000000 7.125000 0.000000 0.000000 3.193607 27.418144 1.366156
-13.712729 18.433740 -4.015205 -3.943599 38.523546 -4.430812 0.000000 0.000000 0.000000 -3.211124 4.177524 -9.898808 2.952445 10.617679 31.001018 0.326156 14.209607 -23.461403 0.715382 5.405196 15.067957 0.000000 0.000000 0.000000 23.551662 6.700955 -1.760950 -2.324691 -9.511965 27.410386 -0.349772 -23.561563 -35.220298 -0.002170 -0.296797 0.815343 1.863021 1.619155 5.186690 -0.138630 2.259158 2.015040 -1.314412 1.142658 -0.756677 -5.006545 3.937961 -9.749193 8.615693 4.700914 24.505563 4.298197 2.767525 8.882819 0.000000 0.000000 0.000000 9.088617 0.071783 -56.713409 23.202718 -34.309711 7.252231 -3.410571 -4.704964 -25.414904 0.000000 0.000000 0.000000 -7.125000 0.000000 0.000000 -33.382113 52.124373 6.447189 0.000000 0.000000 0.000000 -12.679629 3.196280 25.354182 -20.255514 -30.948907 -5.662167 -23.524240 10.553642 -2.303666 0.000000 0.000000 0.000000 7.125000 0.000000 0.000000 2.355595 27.465296 1.004356
-13.106489 18.427525 -4.444654 -4.809796 43.491872 -4.856832 0.000000 0.000000 0.000000 -4.892175 0.926539 -10.134409 2.943776 10.603398 30.953785 0.675806 10.984515 -23.141749 0.038408 1.262717 3.472015 0.000000 0.000000 0.000000 21.921222 7.889162 -0.641361 -2.418772 -9.688656 27.974323 0.188494 -26.507031 -36.179145 -0.003413 0.377733 -1.037834 2.228255 1.201646 5.772334 -0.095033 1.739322 1.904763 -1.462890 0.878440 -1.205028 -5.276098 3.432569 -9.378459 8.408855 4.105479 23.948433 4.183593 2.443310 8.668759 0.000000 0.000000 0.000000 8.344216 -0.600016 -57.683473 22.742353 -33.805813 6.994434 -3.501060 -3.159905 -24.307683 0.000000 0.000000 0.000000 -7.125000 0.000000 0.000000 -32.726192 51.174338 5.477742 0.000000 0.000000 0.000000 -13.264989 3.704084 24.764069 -20.328859 -31.036476 -5.699945 -23.417779 10.348555 -2.495715 0.000000 0.000000 0.000000 7.125000 0.000000 0.000000 2.435721 27.258012 1.050234
-12.448120 18.430533 -4.916067 -5.161299 47.964778 -5.106939 0.000000 0.000000 0.000000 -7.615552 0.731497 -11.469630 3.063341 10.796864 31.597904 0.889643 8.452364 -22.796630 0.002821 -0.270349 -0.742805 0.000000 0.000000 0.000000 19.803433 7.926757 -0.229561 -2.589425 -9.998645 28.972481 0.658947 -29.430540 -37.978609 -0.000690 -0.115782 0.318056 1.371277 1.319573 6.129096 0.087480 1.860161 2.230445 -0.807944 0.942485 -1.097757 -5.385637 2.550480 -9.245705 8.241867 2.947286 23.826522 4.036573 1.877376 8.696656 0.000000 0.000000 0.000000 7.816994 -1.423376 -58.577716 22.761839 -33.827328 7.005267 -3.665686 -2.988170 -25.004941 0.000000 0.000000 0.000000 -7.125000 0.000000 0.000000 -33.333734 51.736226 6.095553 0.000000 0.000000 0.000000 -14.057039 4.043839 24.211811 -19.297044 -29.785754 -5.177731 -26.007812 8.777463 -3.555052 0.000000 0.000000 0.000000 7.125000 0.000000 0.000000 0.463770 26.026283 0.215491
